<svg xmlns="http://www.w3.org/2000/svg" xmlns:xlink="http://www.w3.org/1999/xlink" xmlns:lucid="lucid" width="1140" height="900"><g transform="translate(-260 -140)" lucid:page-tab-id="0_0"><path d="M0 0h1870.87v1322.83H0z" fill="#fff"/><path d="M280 226c0-3.3 2.7-6 6-6h1088c3.3 0 6 2.7 6 6v728c0 3.3-2.7 6-6 6H286c-3.3 0-6-2.7-6-6z" fill="#fff" fill-opacity="0"/><path d="M296.43 220h8.95m5.96 0h8.94m5.96 0h8.94m5.97 0h8.94m5.95 0H365m5.95 0h8.95m5.96 0h8.94m5.96 0h8.94m5.97 0h8.94m5.97 0h8.94m5.97 0h8.95m5.96 0h8.94m5.96 0h8.94m5.97 0h8.93m5.96 0h8.93m5.96 0h8.94m5.96 0h8.94m5.96 0h8.95m5.96 0h8.95m5.96 0h8.95m5.97 0h8.94m5.96 0h8.94m5.96 0h8.95m5.96 0h8.94m5.96 0h8.94m5.97 0h8.94m5.96 0h8.94m5.96 0h8.95m5.95 0h8.94m5.95 0h8.94m5.96 0h8.94m5.96 0h8.94m5.96 0h8.95m5.97 0h8.94m5.97 0h8.95m5.96 0h8.94m5.96 0h8.94m5.96 0h8.95m5.96 0h8.93m5.96 0h8.94m5.96 0h8.94m5.96 0h8.94m5.97 0h8.95m5.96 0h8.95m5.96 0h8.96m5.96 0h8.94m5.96 0h8.94m5.97 0h8.94m5.96 0h8.94m5.96 0h8.95m5.96 0h8.94m5.96 0h8.94m5.97 0h8.94m5.95 0h8.94m5.95 0h8.95m5.96 0h8.94m5.96 0h8.95m5.97 0h8.94m5.97 0h8.94m5.98 0h8.94m5.96 0h8.94m5.96 0h8.95m5.96 0h8.93m5.96 0h8.93m5.97 0h8.94m5.96 0h8.94m5.96 0h8.95m5.96 0h8.95m5.96 0h8.95m5.97 0h8.94m5.96 0h8.94m5.96 0h8.95m5.96 0h4.47l3.03.82 2.15 2.15.82 3.03v4.46m0 5.94v8.9m0 5.96v8.9m0 5.95v8.93m0 5.94v8.92m0 5.93v8.9m0 5.96v8.9m0 5.94v8.92m0 5.94v8.9m0 5.96v8.9m0 5.95v8.93m0 5.94v8.92m0 5.93v8.9m0 5.96v8.9m0 5.94v8.92m0 5.94v8.9m0 5.96v8.9m0 5.95v8.93m0 5.94v8.92m0 5.93v8.9m0 5.96v8.9m0 5.94v8.92m0 5.94v8.9m0 5.96v8.9m0 5.95v8.93m0 5.94v8.92m0 5.93v8.9m0 5.96v8.9m0 5.94v8.92m0 5.94v8.9m0 5.96v8.9m0 5.95v8.93m0 5.94v8.92m0 5.93v8.9m0 5.96v8.9m0 5.94v8.92m0 5.94v8.9m0 5.96v8.9m0 5.95v8.93m0 5.94v8.92m0 5.93v8.9m0 5.96v8.9m0 5.94v8.92m0 5.94v8.9m0 5.96v8.9m0 5.95v8.93m0 5.94v8.92m0 5.93v8.9m0 5.96v8.9m0 5.94V954l-.82 3.03-2.15 2.15-3.03.82h-4.47m-5.96 0h-8.95m-5.96 0h-8.94m-5.96 0h-8.94m-5.97 0h-8.94m-5.95 0H1295m-5.95 0h-8.95m-5.96 0h-8.94m-5.96 0h-8.94m-5.97 0h-8.94m-5.97 0h-8.94m-5.97 0h-8.95m-5.96 0h-8.94m-5.96 0h-8.94m-5.97 0h-8.93m-5.96 0h-8.93m-5.96 0h-8.94m-5.96 0h-8.94m-5.96 0h-8.95m-5.96 0h-8.95m-5.96 0h-8.95m-5.97 0h-8.94m-5.96 0h-8.94m-5.96 0h-8.95m-5.96 0h-8.94m-5.96 0h-8.94m-5.97 0h-8.94m-5.96 0h-8.94m-5.96 0h-8.95m-5.95 0h-8.94m-5.95 0h-8.94m-5.96 0h-8.94m-5.96 0h-8.94m-5.96 0h-8.95m-5.97 0h-8.94m-5.97 0h-8.95m-5.96 0h-8.94m-5.96 0h-8.94m-5.96 0h-8.95m-5.96 0h-8.93m-5.96 0h-8.94m-5.96 0h-8.94m-5.96 0h-8.94m-5.97 0h-8.95m-5.96 0h-8.95m-5.96 0h-8.96m-5.96 0h-8.94m-5.96 0h-8.94m-5.97 0h-8.94m-5.96 0h-8.94m-5.96 0h-8.95m-5.96 0h-8.94m-5.96 0h-8.94m-5.97 0h-8.94m-5.95 0h-8.94m-5.95 0h-8.95m-5.96 0h-8.94m-5.96 0H520m-5.97 0h-8.94m-5.97 0h-8.94m-5.98 0h-8.94m-5.96 0h-8.94m-5.96 0h-8.95m-5.96 0h-8.93m-5.96 0h-8.93m-5.97 0h-8.94m-5.96 0h-8.94m-5.96 0h-8.95m-5.96 0h-8.95m-5.96 0h-8.95m-5.97 0h-8.94m-5.96 0h-8.94m-5.96 0h-8.95m-5.96 0H286l-3.03-.82-2.15-2.15L280 954v-4.46m0-5.94v-8.9m0-5.96v-8.9m0-5.95v-8.93m0-5.94v-8.92m0-5.93v-8.9m0-5.96v-8.9m0-5.94v-8.92m0-5.94v-8.9m0-5.96v-8.9m0-5.95v-8.93m0-5.94v-8.92m0-5.93v-8.9m0-5.96v-8.9m0-5.94v-8.92m0-5.94v-8.9m0-5.96v-8.9m0-5.95v-8.93m0-5.94v-8.92m0-5.93v-8.9m0-5.96v-8.9m0-5.94v-8.92m0-5.94v-8.9m0-5.96v-8.9m0-5.95v-8.93m0-5.94v-8.92m0-5.93v-8.9m0-5.96v-8.9m0-5.94v-8.92m0-5.94v-8.9m0-5.96v-8.9m0-5.95v-8.93m0-5.94v-8.92m0-5.93v-8.9m0-5.96v-8.9m0-5.94v-8.92m0-5.94v-8.9m0-5.96v-8.9m0-5.95v-8.93m0-5.94v-8.92m0-5.93v-8.9m0-5.96v-8.9m0-5.94v-8.92m0-5.94v-8.9m0-5.96v-8.9m0-5.95v-8.93m0-5.94v-8.92m0-5.93v-8.9m0-5.96v-8.9m0-5.94V226l.82-3.03 2.15-2.15L286 220h4.47" stroke="#147eba" stroke-width="3" fill="none"/><path d="M280 220h56v56h-56v-56z" stroke="#fff" stroke-opacity="0" fill="#147eba"/><path d="M323.84 249.36l-5.96-7.36 5.96-7.4h-26.17v-2.08c.98-.32 1.62-1.16 1.62-2.2-.1-1.15-1.03-2.02-2.17-2.14-1.3-.08-2.44.87-2.53 2.15 0 1.03.63 1.87 1.58 2.2v33.88h-4.02v1.6h9.44v-1.6h-3.93v-17.04zm-26.96-19.75c.4-.03.76.33.76.73 0 .44-.32.75-.73.75-.4.04-.75-.3-.75-.7v-.05c0-.4.32-.72.73-.72zm23.6 6.62l-4.66 5.78 4.66 5.73h-22.8v-11.5z" stroke="#fff" stroke-opacity="0" fill="#fff"/><use xlink:href="#a" transform="matrix(1,0,0,1,351,240) translate(0 14.4)"/><path d="M460 166c0-3.3 2.7-6 6-6h368c3.3 0 6 2.7 6 6v848c0 3.3-2.7 6-6 6H466c-3.3 0-6-2.7-6-6z" fill="#fff" fill-opacity="0"/><path d="M484.4 160h12.27m12.26 0h12.27m12.27 0h12.26m12.27 0h12.27m12.26 0h12.27m12.27 0h12.26m12.27 0h12.27m12.26 0h12.27m12.27 0h12.26m12.27 0h12.27m12.26 0H742m12.27 0h12.26m12.27 0h12.27m12.26 0h12.27m12.27 0H834l3.03.82 2.15 2.15.82 3.03v6.06m0 12.1v12.13m0 12.1v12.1m0 12.13v12.1m0 12.13v12.1m0 12.13v12.1m0 12.1v12.13m0 12.1v12.13m0 12.1v12.13m0 12.1v12.1m0 12.13v12.1m0 12.13v12.1m0 12.13v12.1m0 12.1v12.13m0 12.1v12.13m0 12.1v12.13m0 12.1v12.1m0 12.13v12.1m0 12.13v12.1m0 12.13v12.1m0 12.1v12.13m0 12.1v12.13m0 12.1v12.13m0 12.1v12.1m0 12.13v12.1m0 12.13v12.1m0 12.13V802m0 12.1v12.13m0 12.1v12.13m0 12.1v12.13m0 12.1v12.1m0 12.13v12.1m0 12.13v12.1m0 12.13v12.1m0 12.1v12.13m0 12.1v6.07l-.82 3.03-2.15 2.15-3.03.82h-6.13m-12.27 0h-12.27m-12.26 0H778.8m-12.27 0h-12.26m-12.27 0h-12.27m-12.26 0H705.2m-12.27 0h-12.26m-12.27 0h-12.27m-12.26 0H631.6m-12.27 0h-12.26m-12.27 0h-12.27m-12.26 0H558m-12.27 0h-12.26m-12.27 0h-12.27m-12.26 0H484.4m-12.27 0H466l-3.03-.82-2.15-2.15-.82-3.03v-6.06m0-12.1V983.7m0-12.1v-12.1m0-12.13v-12.1m0-12.13v-12.1m0-12.13v-12.1m0-12.1v-12.13m0-12.1v-12.13m0-12.1V814.1m0-12.1v-12.1m0-12.13v-12.1m0-12.13v-12.1m0-12.13v-12.1m0-12.1v-12.13m0-12.1v-12.13m0-12.1V644.5m0-12.1v-12.1m0-12.13v-12.1m0-12.13v-12.1m0-12.13v-12.1m0-12.1v-12.13m0-12.1v-12.13m0-12.1V474.9m0-12.1v-12.1m0-12.13v-12.1m0-12.13v-12.1m0-12.13V378m0-12.1v-12.13m0-12.1v-12.13m0-12.1V305.3m0-12.1v-12.1m0-12.13v-12.1m0-12.13v-12.1m0-12.13v-12.1m0-12.1v-12.13m0-12.1V166l.82-3.03 2.15-2.15L466 160h6.13" stroke="#147eba" stroke-width="3" fill="none"/><use xlink:href="#b" transform="matrix(1,0,0,1,460,180) translate(116.32499999999999 14.4)"/><use xlink:href="#c" transform="matrix(1,0,0,1,460,180) translate(205.725 14.4)"/><use xlink:href="#d" transform="matrix(1,0,0,1,460,180) translate(251.675 14.4)"/><path d="M920 166c0-3.3 2.7-6 6-6h368c3.3 0 6 2.7 6 6v848c0 3.3-2.7 6-6 6H926c-3.3 0-6-2.7-6-6z" fill="#fff" fill-opacity="0"/><path d="M944.4 160h12.27m12.26 0h12.27m12.27 0h12.26m12.27 0h12.27m12.26 0h12.27m12.27 0h12.26m12.27 0h12.27m12.26 0h12.27m12.27 0h12.26m12.27 0h12.27m12.26 0H1202m12.27 0h12.26m12.27 0h12.27m12.26 0h12.27m12.27 0h6.13l3.03.82 2.15 2.15.82 3.03v6.06m0 12.1v12.13m0 12.1v12.1m0 12.13v12.1m0 12.13v12.1m0 12.13v12.1m0 12.1v12.13m0 12.1v12.13m0 12.1v12.13m0 12.1v12.1m0 12.13v12.1m0 12.13v12.1m0 12.13v12.1m0 12.1v12.13m0 12.1v12.13m0 12.1v12.13m0 12.1v12.1m0 12.13v12.1m0 12.13v12.1m0 12.13v12.1m0 12.1v12.13m0 12.1v12.13m0 12.1v12.13m0 12.1v12.1m0 12.13v12.1m0 12.13v12.1m0 12.13V802m0 12.1v12.13m0 12.1v12.13m0 12.1v12.13m0 12.1v12.1m0 12.13v12.1m0 12.13v12.1m0 12.13v12.1m0 12.1v12.13m0 12.1v6.07l-.82 3.03-2.15 2.15-3.03.82h-6.13m-12.27 0h-12.27m-12.26 0h-12.27m-12.27 0h-12.26m-12.27 0h-12.27m-12.26 0h-12.27m-12.27 0h-12.26m-12.27 0h-12.27m-12.26 0h-12.27m-12.27 0h-12.26m-12.27 0h-12.27m-12.26 0H1018m-12.27 0h-12.26m-12.27 0h-12.27m-12.26 0H944.4m-12.27 0H926l-3.03-.82-2.15-2.15-.82-3.03v-6.06m0-12.1V983.7m0-12.1v-12.1m0-12.13v-12.1m0-12.13v-12.1m0-12.13v-12.1m0-12.1v-12.13m0-12.1v-12.13m0-12.1V814.1m0-12.1v-12.1m0-12.13v-12.1m0-12.13v-12.1m0-12.13v-12.1m0-12.1v-12.13m0-12.1v-12.13m0-12.1V644.5m0-12.1v-12.1m0-12.13v-12.1m0-12.13v-12.1m0-12.13v-12.1m0-12.1v-12.13m0-12.1v-12.13m0-12.1V474.9m0-12.1v-12.1m0-12.13v-12.1m0-12.13v-12.1m0-12.13V378m0-12.1v-12.13m0-12.1v-12.13m0-12.1V305.3m0-12.1v-12.1m0-12.13v-12.1m0-12.13v-12.1m0-12.13v-12.1m0-12.1v-12.13m0-12.1V166l.82-3.03 2.15-2.15L926 160h6.13" stroke="#147eba" stroke-width="3" fill="none"/><use xlink:href="#b" transform="matrix(1,0,0,1,920,180) translate(116.32499999999999 14.4)"/><use xlink:href="#c" transform="matrix(1,0,0,1,920,180) translate(205.725 14.4)"/><use xlink:href="#e" transform="matrix(1,0,0,1,920,180) translate(251.675 14.4)"/><path d="M490 246c0-3.3 2.7-6 6-6h308c3.3 0 6 2.7 6 6v208c0 3.3-2.7 6-6 6H496c-3.3 0-6-2.7-6-6z" fill="#248814" fill-opacity=".13"/><path d="M490 240h56v56h-56v-56z" stroke="#fff" stroke-opacity="0" fill="#248814"/><path d="M533.38 262.18c-.15-.17-.34-.25-.56-.25h-5.15v-5.58c-.03-2.54-.96-4.7-2.84-6.4-1.9-1.84-4.15-2.75-6.77-2.75-2.65 0-4.9.83-6.8 2.62-1.9 1.7-2.87 3.87-2.9 6.4v5.66h-5.15c-.24 0-.43.1-.58.25-.16.17-.22.34-.22.6V288c0 .43.34.8.8.8h29.6c.46 0 .8-.37.8-.8v-25.28c0-.2-.06-.38-.22-.54zm-23.46-5.9c.03-2.13.8-3.88 2.37-5.3 1.6-1.5 3.52-2.2 5.73-2.2 2.22 0 4.12.75 5.7 2.25 1.54 1.4 2.32 3.2 2.32 5.32v5.58H509.9zm22.1 30.94h-28.03v-23.7h28z" stroke="#fff" stroke-opacity="0" fill="#fff"/><path d="M517.2 277.3v6.25h1.6v-6.23c2.13-.4 3.62-2.2 3.63-4.35 0-2.43-1.97-4.4-4.4-4.43-2.2-.03-4.06 1.5-4.44 3.68-.42 2.4 1.2 4.68 3.6 5.1zm.82-7.15c.78 0 1.44.27 2 .82.54.56.82 1.22.8 2 .03 1.55-1.2 2.8-2.74 2.82h-.06c-1.56.1-2.92-1.06-3.04-2.62-.12-1.56 1.05-2.93 2.6-3.03.16-.02.28-.02.44 0z" stroke="#fff" stroke-opacity="0" fill="#fff"/><use xlink:href="#f" transform="matrix(1,0,0,1,561,260) translate(0 14.4)"/><use xlink:href="#g" transform="matrix(1,0,0,1,561,260) translate(53.900000000000006 14.4)"/><path d="M950 246c0-3.3 2.7-6 6-6h308c3.3 0 6 2.7 6 6v208c0 3.3-2.7 6-6 6H956c-3.3 0-6-2.7-6-6z" fill="#248814" fill-opacity=".13"/><path d="M950 240h56v56h-56v-56z" stroke="#fff" stroke-opacity="0" fill="#248814"/><path d="M993.38 262.18c-.15-.17-.34-.25-.56-.25h-5.15v-5.58c-.03-2.54-.96-4.7-2.84-6.4-1.9-1.84-4.15-2.75-6.77-2.75-2.65 0-4.9.83-6.8 2.62-1.9 1.7-2.87 3.87-2.9 6.4v5.66h-5.15c-.24 0-.43.1-.58.25-.16.17-.22.34-.22.6V288c0 .43.34.8.8.8h29.6c.46 0 .8-.37.8-.8v-25.28c0-.2-.06-.38-.22-.54zm-23.46-5.9c.03-2.13.8-3.88 2.37-5.3 1.6-1.5 3.52-2.2 5.73-2.2 2.22 0 4.12.75 5.7 2.25 1.54 1.4 2.32 3.2 2.32 5.32v5.58H969.9zm22.1 30.94h-28.03v-23.7h28z" stroke="#fff" stroke-opacity="0" fill="#fff"/><path d="M977.2 277.3v6.25h1.6v-6.23c2.13-.4 3.62-2.2 3.63-4.35 0-2.43-1.97-4.4-4.4-4.43-2.2-.03-4.06 1.5-4.44 3.68-.42 2.4 1.2 4.68 3.6 5.1zm.82-7.15c.78 0 1.44.27 2 .82.54.56.82 1.22.8 2 .03 1.55-1.2 2.8-2.74 2.82h-.06c-1.56.1-2.92-1.06-3.04-2.62-.12-1.56 1.05-2.93 2.6-3.03.16-.02.28-.02.44 0z" stroke="#fff" stroke-opacity="0" fill="#fff"/><use xlink:href="#f" transform="matrix(1,0,0,1,1021,260) translate(0 14.4)"/><use xlink:href="#g" transform="matrix(1,0,0,1,1021,260) translate(53.900000000000006 14.4)"/><path d="M490 486c0-3.3 2.7-6 6-6h308c3.3 0 6 2.7 6 6v208c0 3.3-2.7 6-6 6H496c-3.3 0-6-2.7-6-6z" fill="#147eba" fill-opacity=".13"/><path d="M490 480h56v56h-56v-56z" stroke="#fff" stroke-opacity="0" fill="#147eba"/><path d="M533.38 502.18c-.15-.17-.34-.25-.56-.25h-5.15v-5.58c-.03-2.54-.96-4.7-2.84-6.4-1.9-1.84-4.15-2.75-6.77-2.75-2.65 0-4.9.83-6.8 2.62-1.9 1.7-2.87 3.87-2.9 6.4v5.66h-5.15c-.24 0-.43.1-.58.25-.16.17-.22.34-.22.6V528c0 .43.34.8.8.8h29.6c.46 0 .8-.37.8-.8v-25.28c0-.2-.06-.38-.22-.54zm-23.46-5.9c.03-2.13.8-3.88 2.37-5.3 1.6-1.5 3.52-2.2 5.73-2.2 2.22 0 4.12.75 5.7 2.25 1.54 1.4 2.32 3.2 2.32 5.32v5.58H509.9zm22.1 30.94h-28.03v-23.7h28z" stroke="#fff" stroke-opacity="0" fill="#fff"/><path d="M517.2 517.3v6.25h1.6v-6.23c2.13-.4 3.62-2.2 3.63-4.35 0-2.43-1.97-4.4-4.4-4.43-2.2-.03-4.06 1.5-4.44 3.68-.42 2.4 1.2 4.68 3.6 5.1zm.82-7.15c.78 0 1.44.27 2 .82.54.56.82 1.22.8 2 .03 1.55-1.2 2.8-2.74 2.82h-.06c-1.56.1-2.92-1.06-3.04-2.62-.12-1.56 1.05-2.93 2.6-3.03.16-.02.28-.02.44 0z" stroke="#fff" stroke-opacity="0" fill="#fff"/><use xlink:href="#h" transform="matrix(1,0,0,1,561,500) translate(0 14.4)"/><use xlink:href="#i" transform="matrix(1,0,0,1,561,500) translate(60.9 14.4)"/><path d="M950 486c0-3.3 2.7-6 6-6h308c3.3 0 6 2.7 6 6v208c0 3.3-2.7 6-6 6H956c-3.3 0-6-2.7-6-6z" fill="#147eba" fill-opacity=".13"/><path d="M950 480h56v56h-56v-56z" stroke="#fff" stroke-opacity="0" fill="#147eba"/><path d="M993.38 502.18c-.15-.17-.34-.25-.56-.25h-5.15v-5.58c-.03-2.54-.96-4.7-2.84-6.4-1.9-1.84-4.15-2.75-6.77-2.75-2.65 0-4.9.83-6.8 2.62-1.9 1.7-2.87 3.87-2.9 6.4v5.66h-5.15c-.24 0-.43.1-.58.25-.16.17-.22.34-.22.6V528c0 .43.34.8.8.8h29.6c.46 0 .8-.37.8-.8v-25.28c0-.2-.06-.38-.22-.54zm-23.46-5.9c.03-2.13.8-3.88 2.37-5.3 1.6-1.5 3.52-2.2 5.73-2.2 2.22 0 4.12.75 5.7 2.25 1.54 1.4 2.32 3.2 2.32 5.32v5.58H969.9zm22.1 30.94h-28.03v-23.7h28z" stroke="#fff" stroke-opacity="0" fill="#fff"/><path d="M977.2 517.3v6.25h1.6v-6.23c2.13-.4 3.62-2.2 3.63-4.35 0-2.43-1.97-4.4-4.4-4.43-2.2-.03-4.06 1.5-4.44 3.68-.42 2.4 1.2 4.68 3.6 5.1zm.82-7.15c.78 0 1.44.27 2 .82.54.56.82 1.22.8 2 .03 1.55-1.2 2.8-2.74 2.82h-.06c-1.56.1-2.92-1.06-3.04-2.62-.12-1.56 1.05-2.93 2.6-3.03.16-.02.28-.02.44 0z" stroke="#fff" stroke-opacity="0" fill="#fff"/><use xlink:href="#h" transform="matrix(1,0,0,1,1021,500) translate(0 14.4)"/><use xlink:href="#i" transform="matrix(1,0,0,1,1021,500) translate(60.9 14.4)"/><path d="M960 726c0-3.3 2.7-6 6-6h308c3.3 0 6 2.7 6 6v208c0 3.3-2.7 6-6 6H966c-3.3 0-6-2.7-6-6z" fill="#ccc"/><path d="M960 720h56v56h-56v-56z" stroke="#fff" stroke-opacity="0" fill="#999"/><path d="M1003.38 742.18c-.15-.17-.34-.25-.56-.25h-5.15v-5.58c-.03-2.54-.96-4.7-2.84-6.4-1.9-1.84-4.15-2.75-6.77-2.75-2.65 0-4.9.83-6.8 2.62-1.9 1.7-2.87 3.87-2.9 6.4v5.66h-5.15c-.24 0-.43.1-.58.25-.16.17-.22.34-.22.6V768c0 .43.34.8.8.8h29.6c.46 0 .8-.37.8-.8v-25.28c0-.2-.06-.38-.22-.54zm-23.46-5.9c.03-2.13.8-3.88 2.37-5.3 1.6-1.5 3.52-2.2 5.73-2.2 2.22 0 4.12.75 5.7 2.25 1.54 1.4 2.32 3.2 2.32 5.32v5.58H979.9zm22.1 30.94h-28.03v-23.7h28z" stroke="#fff" stroke-opacity="0" fill="#fff"/><path d="M987.2 757.3v6.25h1.6v-6.23c2.13-.4 3.62-2.2 3.63-4.35 0-2.43-1.97-4.4-4.4-4.43-2.2-.03-4.06 1.5-4.44 3.68-.42 2.4 1.2 4.68 3.6 5.1zm.82-7.15c.78 0 1.44.27 2 .82.54.56.82 1.22.8 2 .03 1.55-1.2 2.8-2.74 2.82h-.06c-1.56.1-2.92-1.06-3.04-2.62-.12-1.56 1.05-2.93 2.6-3.03.16-.02.28-.02.44 0z" stroke="#fff" stroke-opacity="0" fill="#fff"/><use xlink:href="#j" transform="matrix(1,0,0,1,1031,740) translate(0 14.4)"/><use xlink:href="#k" transform="matrix(1,0,0,1,1031,740) translate(67.95 14.4)"/><path d="M490 726c0-3.3 2.7-6 6-6h308c3.3 0 6 2.7 6 6v208c0 3.3-2.7 6-6 6H496c-3.3 0-6-2.7-6-6z" fill="#ccc"/><path d="M490 720h56v56h-56v-56z" stroke="#fff" stroke-opacity="0" fill="#999"/><path d="M533.38 742.18c-.15-.17-.34-.25-.56-.25h-5.15v-5.58c-.03-2.54-.96-4.7-2.84-6.4-1.9-1.84-4.15-2.75-6.77-2.75-2.65 0-4.9.83-6.8 2.62-1.9 1.7-2.87 3.87-2.9 6.4v5.66h-5.15c-.24 0-.43.1-.58.25-.16.17-.22.34-.22.6V768c0 .43.34.8.8.8h29.6c.46 0 .8-.37.8-.8v-25.28c0-.2-.06-.38-.22-.54zm-23.46-5.9c.03-2.13.8-3.88 2.37-5.3 1.6-1.5 3.52-2.2 5.73-2.2 2.22 0 4.12.75 5.7 2.25 1.54 1.4 2.32 3.2 2.32 5.32v5.58H509.9zm22.1 30.94h-28.03v-23.7h28z" stroke="#fff" stroke-opacity="0" fill="#fff"/><path d="M517.2 757.3v6.25h1.6v-6.23c2.13-.4 3.62-2.2 3.63-4.35 0-2.43-1.97-4.4-4.4-4.43-2.2-.03-4.06 1.5-4.44 3.68-.42 2.4 1.2 4.68 3.6 5.1zm.82-7.15c.78 0 1.44.27 2 .82.54.56.82 1.22.8 2 .03 1.55-1.2 2.8-2.74 2.82h-.06c-1.56.1-2.92-1.06-3.04-2.62-.12-1.56 1.05-2.93 2.6-3.03.16-.02.28-.02.44 0z" stroke="#fff" stroke-opacity="0" fill="#fff"/><use xlink:href="#j" transform="matrix(1,0,0,1,561,740) translate(0 14.4)"/><use xlink:href="#k" transform="matrix(1,0,0,1,561,740) translate(67.95 14.4)"/><path d="M590 370c-16.56 0-30-13.44-30-30 0-16.56 13.44-30 30-30 16.56 0 30 13.44 30 30 0 16.56-13.44 30-30 30zm0-57.42c-15.18 0-27.42 12.24-27.42 27.42 0 15.18 12.24 27.42 27.42 27.42 15.18 0 27.42-12.24 27.42-27.42 0-15.18-12.24-27.42-27.42-27.42z" stroke="#fff" stroke-opacity="0" fill="#693cc5"/><path d="M593.6 356.84h-10.53v-2.57h9.25v-26.14h-9.25v-2.57h10.52c.7 0 1.26.56 1.26 1.28v28.72c0 .72-.56 1.28-1.27 1.28z" stroke="#fff" stroke-opacity="0" fill="#693cc5"/><path d="M582.8 339.92h22.75v2.56H582.8v-2.56zM574.43 332.9c-.2 0-.36-.03-.54-.13-.47-.2-.74-.64-.74-1.14v-9.57c0-.5.27-.94.73-1.16.44-.2.94-.17 1.35.15l5.97 4.8c.3.25.48.6.48 1s-.17.74-.48.98l-5.97 4.8c-.24.2-.5.27-.82.27zm1.3-8.2v4.27l2.65-2.13zM574.43 347.26c-.2 0-.36-.03-.54-.13-.47-.2-.74-.64-.74-1.14v-9.58c0-.5.27-.94.73-1.15.44-.22.94-.17 1.35.14l5.97 4.8c.3.26.48.6.48 1s-.17.75-.48 1l-5.97 4.78c-.24.2-.5.28-.82.28zm1.3-8.2v4.27l2.65-2.13z" stroke="#fff" stroke-opacity="0" fill="#693cc5"/><path d="M606.75 348.45c-.18 0-.32-.03-.48-.1-.5-.2-.8-.64-.8-1.18V335.2c0-.7.57-1.27 1.28-1.27.35 0 .65.13.9.38l6 6c.48.5.48 1.3 0 1.8l-6 6c-.25.23-.55.35-.9.35zm1.28-10.2v5.8l2.9-2.9zM574.44 360.43c-.2 0-.37-.04-.55-.14-.47-.2-.74-.65-.74-1.15v-9.57c0-.72.56-1.3 1.27-1.3.3 0 .57.1.8.3l6 4.78c.53.44.63 1.25.18 1.8-.05.07-.1.13-.18.2l-5.98 4.8c-.24.18-.5.27-.8.27zm1.27-8.2v4.26l2.68-2.14z" stroke="#fff" stroke-opacity="0" fill="#693cc5"/><use xlink:href="#l" transform="matrix(1,0,0,1,530,379) translate(16.69753086419753 17.77777777777778)"/><use xlink:href="#m" transform="matrix(1,0,0,1,530,379) translate(65.0925925925926 17.77777777777778)"/><path d="M1050 370c-16.56 0-30-13.44-30-30 0-16.56 13.44-30 30-30 16.56 0 30 13.44 30 30 0 16.56-13.44 30-30 30zm0-57.42c-15.18 0-27.42 12.24-27.42 27.42 0 15.18 12.24 27.42 27.42 27.42 15.18 0 27.42-12.24 27.42-27.42 0-15.18-12.24-27.42-27.42-27.42z" stroke="#fff" stroke-opacity="0" fill="#693cc5"/><path d="M1053.6 356.84h-10.53v-2.57h9.25v-26.14h-9.25v-2.57h10.52c.7 0 1.26.56 1.26 1.28v28.72c0 .72-.56 1.28-1.27 1.28z" stroke="#fff" stroke-opacity="0" fill="#693cc5"/><path d="M1042.8 339.92h22.75v2.56h-22.74v-2.56zM1034.43 332.9c-.2 0-.36-.03-.54-.13-.47-.2-.74-.64-.74-1.14v-9.57c0-.5.27-.94.73-1.16.44-.2.94-.17 1.35.15l5.97 4.8c.3.25.48.6.48 1s-.17.74-.48.98l-5.97 4.8c-.24.2-.5.27-.82.27zm1.3-8.2v4.27l2.65-2.13zM1034.43 347.26c-.2 0-.36-.03-.54-.13-.47-.2-.74-.64-.74-1.14v-9.58c0-.5.27-.94.73-1.15.44-.22.94-.17 1.35.14l5.97 4.8c.3.26.48.6.48 1s-.17.75-.48 1l-5.97 4.78c-.24.2-.5.28-.82.28zm1.3-8.2v4.27l2.65-2.13z" stroke="#fff" stroke-opacity="0" fill="#693cc5"/><path d="M1066.75 348.45c-.18 0-.32-.03-.48-.1-.5-.2-.8-.64-.8-1.18V335.2c0-.7.57-1.27 1.28-1.27.35 0 .65.13.9.38l6 6c.48.5.48 1.3 0 1.8l-6 6c-.25.23-.55.35-.9.35zm1.28-10.2v5.8l2.9-2.9zM1034.44 360.43c-.2 0-.37-.04-.55-.14-.47-.2-.74-.65-.74-1.15v-9.57c0-.72.56-1.3 1.27-1.3.3 0 .57.1.8.3l6 4.78c.53.44.63 1.25.18 1.8-.05.07-.1.13-.18.2l-5.98 4.8c-.24.18-.5.27-.8.27zm1.27-8.2v4.26l2.68-2.14z" stroke="#fff" stroke-opacity="0" fill="#693cc5"/><use xlink:href="#l" transform="matrix(1,0,0,1,990,379) translate(16.69753086419753 17.77777777777778)"/><use xlink:href="#m" transform="matrix(1,0,0,1,990,379) translate(65.0925925925926 17.77777777777778)"/><path d="M713.17 376.33c-18.3 0-33.17-14.86-33.17-33.16 0-18.3 14.86-33.17 33.17-33.17 18.3 0 33.16 14.86 33.16 33.17 0 18.3-14.86 33.16-33.16 33.16zm0-63.68c-16.85 0-30.52 13.67-30.52 30.52s13.67 30.5 30.52 30.5 30.5-13.65 30.5-30.5-13.65-30.52-30.5-30.52z" stroke="#fff" stroke-opacity="0" stroke-width="3" fill="#693cc5"/><path d="M732.95 352.45h-2.53v-5.3c0-.75-.6-1.33-1.3-1.33h-4.03v-5.3c0-.74-.6-1.32-1.3-1.32h-9.3v-4h9.3c.7 0 1.3-.6 1.3-1.3v-11.97c0-.74-.6-1.32-1.3-1.32h-21.25c-.72 0-1.3.6-1.3 1.33v11.97c0 .7.58 1.3 1.3 1.3h9.3v4h-9.3c-.72 0-1.3.58-1.3 1.32v5.3h-3.98c-.76 0-1.35.58-1.35 1.32v5.3h-2.54c-.72 0-1.3.62-1.3 1.32v6.66c0 .74.58 1.32 1.3 1.32h6.5c.76 0 1.36-.58 1.36-1.32v-6.66c0-.7-.6-1.3-1.36-1.3h-1.3v-4h6.63v4h-1.3c-.76 0-1.35.6-1.35 1.3v6.66c0 .74.6 1.32 1.35 1.32h6.63c.7 0 1.3-.58 1.3-1.32v-6.66c0-.7-.6-1.3-1.3-1.3h-2.66v-5.32c0-.74-.6-1.32-1.36-1.32h-2.6v-4h18.53v4h-2.6c-.77 0-1.36.58-1.36 1.32v5.3h-2.67c-.7 0-1.3.62-1.3 1.32v6.66c0 .74.6 1.32 1.3 1.32h6.63c.76 0 1.36-.58 1.36-1.32v-6.66c0-.7-.6-1.3-1.37-1.3h-1.3v-4h6.63v4h-1.44c-.72 0-1.3.6-1.3 1.3v6.66c0 .74.58 1.32 1.3 1.32H733c.7 0 1.3-.58 1.3-1.32v-6.66-.04c-.04-.7-.63-1.27-1.35-1.27zm-34.37 6.62h-3.85v-3.95h3.85zm10.6-3.95v3.95h-3.97v-3.95zm-5.28-22.58v-9.25h18.53v9.24zm17.23 26.53h-3.97v-3.95h3.97zm10.47 0h-3.97v-3.95h3.97z" stroke="#fff" stroke-opacity="0" stroke-width="3" fill="#693cc5"/><use xlink:href="#n" transform="matrix(1,0,0,1,650,385.33333333333326) translate(42.51234567901235 17.77777777777778)"/><path d="M1173.17 376.33c-18.3 0-33.17-14.86-33.17-33.16 0-18.3 14.86-33.17 33.17-33.17 18.3 0 33.16 14.86 33.16 33.17 0 18.3-14.86 33.16-33.16 33.16zm0-63.68c-16.85 0-30.52 13.67-30.52 30.52s13.67 30.5 30.52 30.5 30.5-13.65 30.5-30.5-13.65-30.52-30.5-30.52z" stroke="#fff" stroke-opacity="0" stroke-width="3" fill="#693cc5"/><path d="M1192.95 352.45h-2.53v-5.3c0-.75-.6-1.33-1.3-1.33h-4.03v-5.3c0-.74-.6-1.32-1.3-1.32h-9.3v-4h9.3c.7 0 1.3-.6 1.3-1.3v-11.97c0-.74-.6-1.32-1.3-1.32h-21.25c-.72 0-1.3.6-1.3 1.33v11.97c0 .7.58 1.3 1.3 1.3h9.3v4h-9.3c-.72 0-1.3.58-1.3 1.32v5.3h-3.98c-.76 0-1.35.58-1.35 1.32v5.3h-2.54c-.72 0-1.3.62-1.3 1.32v6.66c0 .74.58 1.32 1.3 1.32h6.5c.76 0 1.36-.58 1.36-1.32v-6.66c0-.7-.6-1.3-1.36-1.3h-1.3v-4h6.63v4h-1.3c-.76 0-1.35.6-1.35 1.3v6.66c0 .74.6 1.32 1.35 1.32h6.63c.7 0 1.3-.58 1.3-1.32v-6.66c0-.7-.6-1.3-1.3-1.3h-2.66v-5.32c0-.74-.6-1.32-1.36-1.32h-2.6v-4h18.53v4h-2.6c-.77 0-1.36.58-1.36 1.32v5.3h-2.67c-.7 0-1.3.62-1.3 1.32v6.66c0 .74.6 1.32 1.3 1.32h6.63c.76 0 1.36-.58 1.36-1.32v-6.66c0-.7-.6-1.3-1.37-1.3h-1.3v-4h6.63v4h-1.44c-.72 0-1.3.6-1.3 1.3v6.66c0 .74.58 1.32 1.3 1.32h6.67c.7 0 1.3-.58 1.3-1.32v-6.66-.04c-.04-.7-.63-1.27-1.35-1.27zm-34.37 6.62h-3.85v-3.95h3.85zm10.6-3.95v3.95h-3.97v-3.95zm-5.28-22.58v-9.25h18.53v9.24zm17.23 26.53h-3.97v-3.95h3.97zm10.47 0h-3.97v-3.95h3.97z" stroke="#fff" stroke-opacity="0" stroke-width="3" fill="#693cc5"/><use xlink:href="#n" transform="matrix(1,0,0,1,1110,385.33333333333326) translate(42.51234567901235 17.77777777777778)"/><path d="M600 550h80v80h-80v-80z" stroke="#fff" stroke-opacity="0" stroke-width="2" fill="#d86613"/><path d="M626.44 588.83c.1.1.15.18.27.24.16.15.3.27.5.4l.1.07.54.27.33.16h.22l.28.12c.5.18 1.05.4 1.67.6l1 .26.5.15c2.8.68 5.25.98 8.15.95 4.4.1 8.12-.63 12.16-2.33 1.73-.8 2.74-2.38 2.77-4.28v-15.3c0-.67-.36-1.23-.95-1.53l-13.26-6.15c-.45-.24-.96-.24-1.4 0L626 568.6c-.6.3-.95.87-.95 1.53v15.36c0 1.2.38 2.2 1.16 3.12.06.1.12.15.2.2zm5.44.15l-.9-.27c-.57-.17-1.05-.35-1.5-.5l-.38-.17-.36-.15-.36-.18-.27-.2-.1-.16-.1-.1-.1-.08c-.4-.5-.6-1.04-.6-1.7v-14.05l11.72 5.52v13.04c-2.32-.03-4.3-.3-6.57-.83zm19.4-1.13c-3.4 1.46-6.53 2.1-10.23 2.14v-12.87l11.73-5.36v13.67c.03 1.07-.53 1.96-1.5 2.4zM640 564.45l11.8 5.5-11.62 5.2-.06-.05-11.47-5.33z" stroke="#fff" stroke-opacity="0" stroke-width="2" fill="#fff"/><path d="M658.4 579.53l-.54 2.04c4.77 1.4 7.77 3.42 7.77 5.23 0 3.53-10.54 7.47-25.63 7.47-15.1 0-25.63-3.94-25.63-7.47 0-1.8 3-3.82 7.77-5.23l-.55-2.04c-6 1.75-9.33 4.35-9.33 7.27 0 6.23 14.3 9.6 27.73 9.6 13.42 0 27.73-3.37 27.73-9.6 0-2.92-3.32-5.5-9.32-7.27zM658.36 599.76l-4.96-2.15c-.4-.17-.8-.17-1.2 0l-5.07 2.2c-.47.24-.72.66-.72 1.17v5.5l-4.74-2.06c-.4-.2-.8-.2-1.2 0l-4.78 2.07v-5.52c0-.53-.3-1-.76-1.2l-5-2.14c-.36-.17-.8-.17-1.2 0l-5.06 2.2c-.47.24-.73.66-.73 1.17v6.5c0 .54.3.98.8 1.2l4.96 2.13h.1c.18.08.33.12.54.12.2 0 .37-.02.5-.12l4.83-2.07v5.5c0 .53.3.97.76 1.2l4.96 2.14h.07c.18.08.36.12.58.12.18 0 .36-.05.54-.13l5.06-2.18c.47-.26.72-.68.76-1.2v-5.47l4.7 2.07h.15c.2.08.37.12.58.14.2-.02.33-.06.48-.14l5.1-2.13c.47-.22.73-.66.73-1.17v-6.55c0-.53-.3-1-.8-1.2zm-5.58-.1l2.9 1.25-2.72 1.12-2.82-1.2zm-11.73 6.8l2.9 1.24-2.72 1.07-2.83-1.17zm-11.74-6.8l2.9 1.25-2.7 1.08-2.84-1.17zm-4.27 2.78l3.23 1.36v4.5l-3.23-1.4zm5.37 5.83V604l3.18-1.3v4.25zm6.37.97l3.22 1.37v4.46l-3.23-1.37zm5.33 5.84v-4.28l3.22-1.32v4.27zm6.4-12.64l3.2 1.36v4.5l-3.2-1.4zm5.33 5.85V604l3.23-1.33v4.25z" stroke="#fff" stroke-opacity="0" stroke-width="2" fill="#fff"/><use xlink:href="#o" transform="matrix(1,0,0,1,570,639) translate(3.827160493827165 17.77777777777778)"/><use xlink:href="#p" transform="matrix(1,0,0,1,570,639) translate(59.75308641975308 17.77777777777778)"/><path d="M1060 550h80v80h-80v-80z" stroke="#fff" stroke-opacity="0" stroke-width="2" fill="#d86613"/><path d="M1086.44 588.83c.1.1.15.18.27.24.16.15.3.27.5.4l.1.07.54.27.33.16h.22l.28.12c.5.18 1.05.4 1.67.6l1 .26.5.15c2.8.68 5.25.98 8.15.95 4.4.1 8.12-.63 12.16-2.33 1.73-.8 2.74-2.38 2.77-4.28v-15.3c0-.67-.36-1.23-.95-1.53l-13.26-6.15c-.45-.24-.96-.24-1.4 0l-13.3 6.16c-.6.3-.95.87-.95 1.53v15.36c0 1.2.38 2.2 1.16 3.12.06.1.12.15.2.2zm5.44.15l-.9-.27c-.57-.17-1.05-.35-1.5-.5l-.38-.17-.36-.15-.36-.18-.27-.2-.1-.16-.1-.1-.1-.08c-.4-.5-.6-1.04-.6-1.7v-14.05l11.72 5.52v13.04c-2.32-.03-4.3-.3-6.57-.83zm19.4-1.13c-3.4 1.46-6.53 2.1-10.23 2.14v-12.87l11.73-5.36v13.67c.03 1.07-.53 1.96-1.5 2.4zm-11.28-23.4l11.8 5.5-11.62 5.2-.06-.05-11.47-5.33z" stroke="#fff" stroke-opacity="0" stroke-width="2" fill="#fff"/><path d="M1118.4 579.53l-.54 2.04c4.77 1.4 7.77 3.42 7.77 5.23 0 3.53-10.54 7.47-25.63 7.47-15.1 0-25.63-3.94-25.63-7.47 0-1.8 3-3.82 7.77-5.23l-.55-2.04c-6 1.75-9.33 4.35-9.33 7.27 0 6.23 14.3 9.6 27.73 9.6 13.42 0 27.73-3.37 27.73-9.6 0-2.92-3.32-5.5-9.32-7.27zM1118.36 599.76l-4.96-2.15c-.4-.17-.8-.17-1.2 0l-5.07 2.2c-.47.24-.72.66-.72 1.17v5.5l-4.74-2.06c-.4-.2-.8-.2-1.2 0l-4.78 2.07v-5.52c0-.53-.3-1-.76-1.2l-5-2.14c-.36-.17-.8-.17-1.2 0l-5.06 2.2c-.47.24-.73.66-.73 1.17v6.5c0 .54.3.98.8 1.2l4.96 2.13h.1c.18.08.33.12.54.12.2 0 .37-.02.5-.12l4.83-2.07v5.5c0 .53.3.97.76 1.2l4.96 2.14h.07c.18.08.36.12.58.12.18 0 .36-.05.54-.13l5.06-2.18c.47-.26.72-.68.76-1.2v-5.47l4.7 2.07h.15c.2.08.37.12.58.14.2-.02.33-.06.48-.14l5.1-2.13c.47-.22.73-.66.73-1.17v-6.55c0-.53-.3-1-.8-1.2zm-5.58-.1l2.9 1.25-2.72 1.12-2.82-1.2zm-11.73 6.8l2.9 1.24-2.72 1.07-2.83-1.17zm-11.74-6.8l2.9 1.25-2.7 1.08-2.84-1.17zm-4.27 2.78l3.23 1.36v4.5l-3.23-1.4zm5.37 5.83V604l3.18-1.3v4.25zm6.37.97l3.22 1.37v4.46l-3.23-1.37zm5.33 5.84v-4.28l3.22-1.32v4.27zm6.4-12.64l3.2 1.36v4.5l-3.2-1.4zm5.33 5.85V604l3.23-1.33v4.25z" stroke="#fff" stroke-opacity="0" stroke-width="2" fill="#fff"/><use xlink:href="#o" transform="matrix(1,0,0,1,1030,639) translate(3.827160493827165 17.77777777777778)"/><use xlink:href="#p" transform="matrix(1,0,0,1,1030,639) translate(59.75308641975308 17.77777777777778)"/><path d="M389.04 900h-58c-6 .08-10.96-4.8-11.04-10.88v-58.08c-.08-6 4.8-10.96 10.88-11.04H389.12c6.08.08 10.96 5.04 10.88 11.04v58.08c-.08 6-4.96 10.88-10.96 10.88zm-58-76.56h-.08c-4.24 0-7.6 3.44-7.52 7.6v58.08c0 4.16 3.44 7.52 7.6 7.44h58.08c4.16 0 7.52-3.36 7.6-7.52v-58-.08c-.08-4.24-3.52-7.6-7.68-7.52z" stroke="#fff" stroke-opacity="0" fill="#d86613"/><path d="M356.8 847.34h-25.53c-.95 0-1.7-.76-1.7-1.7v-15.95c0-.96.75-1.72 1.7-1.72h25.52c.95 0 1.7.76 1.7 1.7v15.95c0 .95-.75 1.7-1.7 1.7zm-23.82-3.4h22.1v-12.55H333z" stroke="#fff" stroke-opacity="0" fill="#d86613"/><path d="M335.97 834.47h3.4v6.38h-3.4v-6.38zM342.35 834.47h3.4v6.38h-3.4v-6.38zM348.73 834.47h3.4v6.38h-3.4v-6.38zM356.8 869.7h-25.53c-.95 0-1.7-.77-1.7-1.72v-15.96c0-.95.75-1.7 1.7-1.7h25.52c.95 0 1.7.75 1.7 1.7v15.96c0 .95-.75 1.7-1.7 1.7zm-23.82-3.42h22.1v-12.56H333z" stroke="#fff" stroke-opacity="0" fill="#d86613"/><path d="M335.97 856.82h3.4v6.38h-3.4v-6.38zM342.35 856.82h3.4v6.38h-3.4v-6.38zM348.73 856.82h3.4v6.38h-3.4v-6.38zM356.8 892.02h-25.53c-.95 0-1.7-.76-1.7-1.7v-15.95c0-.95.75-1.7 1.7-1.7h25.52c.95 0 1.7.75 1.7 1.7v15.94c0 .96-.75 1.72-1.7 1.72zm-23.82-3.4h22.1v-12.55H333z" stroke="#fff" stroke-opacity="0" fill="#d86613"/><path d="M335.97 879.15h3.4v6.38h-3.4v-6.38zM342.35 879.15h3.4v6.38h-3.4v-6.38zM348.73 879.15h3.4v6.38h-3.4v-6.38zM388.73 847.34H363.2c-.95 0-1.7-.76-1.7-1.7v-15.95c0-.96.75-1.72 1.7-1.72h25.53c.95 0 1.7.76 1.7 1.7v15.95c0 .95-.75 1.7-1.7 1.7zm-23.82-3.4h22.12v-12.55h-22.1z" stroke="#fff" stroke-opacity="0" fill="#d86613"/><path d="M367.88 834.47h3.4v6.38h-3.4v-6.38zM374.26 834.47h3.4v6.38h-3.4v-6.38zM380.65 834.47h3.4v6.38h-3.4v-6.38zM388.73 869.7H363.2c-.95 0-1.7-.77-1.7-1.72v-15.96c0-.95.75-1.7 1.7-1.7h25.53c.95 0 1.7.75 1.7 1.7v15.96c0 .95-.75 1.7-1.7 1.7zm-23.82-3.42h22.12v-12.56h-22.1z" stroke="#fff" stroke-opacity="0" fill="#d86613"/><path d="M367.88 856.82h3.4v6.38h-3.4v-6.38zM374.26 856.82h3.4v6.38h-3.4v-6.38zM380.65 856.82h3.4v6.38h-3.4v-6.38zM388.73 892.02H363.2c-.95 0-1.7-.76-1.7-1.7v-15.95c0-.95.75-1.7 1.7-1.7h25.53c.95 0 1.7.75 1.7 1.7v15.94c0 .96-.75 1.72-1.7 1.72zm-23.82-3.4h22.12v-12.55h-22.1z" stroke="#fff" stroke-opacity="0" fill="#d86613"/><path d="M367.88 879.15h3.4v6.38h-3.4v-6.38zM374.26 879.15h3.4v6.38h-3.4v-6.38zM380.65 879.15h3.4v6.38h-3.4v-6.38z" stroke="#fff" stroke-opacity="0" fill="#d86613"/><use xlink:href="#q" transform="matrix(1,0,0,1,290,909) translate(46.60493827160494 17.77777777777778)"/><g filter="url(#r)"><path d="M601.4 791.4h77.2v77.2h-77.2z" stroke="#fff" stroke-opacity="0" fill="#3b48cc"/><path d="M677.2 792.8v74.4h-74.4v-74.4h74.4m2.8-2.8h-80v80h80v-80z" stroke="#fff" stroke-opacity="0" fill="#fff"/><path d="M640.47 806c-9.43 0-16.6 3.03-16.6 7.05v34.8c0 4.06 7.17 7.1 16.6 7.1 9.42 0 16.58-3.04 16.58-7.06v-34.8c0-4.07-7.13-7.1-16.58-7.1zm0 1.86c8.65 0 14.7 2.74 14.7 5.2 0 2.43-6.05 5.18-14.7 5.18-8.66 0-14.7-2.7-14.7-5.14 0-2.45 6.04-5.24 14.7-5.24zm0 45.22c-8.66 0-14.7-2.74-14.7-5.2v-7.33c2.72 2.25 8.13 3.72 14.7 3.72 6.6 0 11.97-1.47 14.7-3.72v7.34c0 2.44-6.05 5.18-14.7 5.18zm0-10.72c-8.66 0-14.7-2.7-14.7-5.14v-8.6c2.72 2.2 8.13 3.66 14.7 3.66 6.6 0 11.97-1.47 14.7-3.67v8.62c0 2.45-6.05 5.14-14.7 5.14zm0-12c-8.66 0-14.7-2.68-14.7-5.13v-8.85c2.72 2.25 8.13 3.72 14.7 3.72 6.6 0 11.97-1.47 14.7-3.72v8.8c0 2.45-6.05 5.2-14.7 5.2z" stroke="#fff" stroke-opacity="0" fill="#fff"/><use xlink:href="#s" transform="matrix(1,0,0,1,570,879) translate(46.60493827160494 17.77777777777778)"/></g><g filter="url(#r)"><path d="M1061.4 791.4h77.2v77.2h-77.2z" stroke="#fff" stroke-opacity="0" fill="#3b48cc"/><path d="M1137.2 792.8v74.4h-74.4v-74.4h74.4m2.8-2.8h-80v80h80v-80z" stroke="#fff" stroke-opacity="0" fill="#fff"/><path d="M1100.47 806c-9.43 0-16.6 3.03-16.6 7.05v34.8c0 4.06 7.17 7.1 16.6 7.1 9.42 0 16.58-3.04 16.58-7.06v-34.8c0-4.07-7.13-7.1-16.58-7.1zm0 1.86c8.65 0 14.7 2.74 14.7 5.2 0 2.43-6.05 5.18-14.7 5.18-8.66 0-14.7-2.7-14.7-5.14 0-2.45 6.04-5.24 14.7-5.24zm0 45.22c-8.66 0-14.7-2.74-14.7-5.2v-7.33c2.72 2.25 8.13 3.72 14.7 3.72 6.6 0 11.97-1.47 14.7-3.72v7.34c0 2.44-6.05 5.18-14.7 5.18zm0-10.72c-8.66 0-14.7-2.7-14.7-5.14v-8.6c2.72 2.2 8.13 3.66 14.7 3.66 6.6 0 11.97-1.47 14.7-3.67v8.62c0 2.45-6.05 5.14-14.7 5.14zm0-12c-8.66 0-14.7-2.68-14.7-5.13v-8.85c2.72 2.25 8.13 3.72 14.7 3.72 6.6 0 11.97-1.47 14.7-3.72v8.8c0 2.45-6.05 5.2-14.7 5.2z" stroke="#fff" stroke-opacity="0" fill="#fff"/><use xlink:href="#s" transform="matrix(1,0,0,1,1030,879) translate(46.60493827160494 17.77777777777778)"/></g><path d="M320 640h80v80h-80v-80z" stroke="#fff" stroke-opacity="0" stroke-width="2" fill="#d6242d"/><path d="M372.1 693.62l1.5-1.5 12.75 12.74-1.5 1.5-12.76-12.74zM333.65 655.16l1.5-1.5 14.14 14.14-1.5 1.5-14.15-14.14zM336.84 701.7l7.47-7.46 1.52 1.5-7.47 7.47-1.5-1.5zM374.18 664.36l7.46-7.46 1.5 1.5-7.45 7.47-1.52-1.5z" stroke="#fff" stroke-opacity="0" stroke-width="1.41" fill="#fff"/><path d="M384.5 678.95c-.22-5-1.67-9.22-4.6-13.26l-1.73 1.25c2.65 3.67 3.98 7.46 4.2 12h-2.15v2.13h2.14c-.2 4.56-1.5 8.38-4.2 12.1l1.73 1.22c2.94-4.08 4.4-8.3 4.6-13.32h2.12v-2.16zM346.9 661.9c3.68-2.68 7.48-4 12.03-4.2v2.05h2.14v-2.05c4.55.2 8.35 1.52 12.03 4.2l1.3-1.74c-4.1-2.95-8.3-4.4-13.33-4.6v-2.2h-2.14v2.2c-5.04.2-9.24 1.65-13.33 4.6zM373.1 698.22c-3.68 2.66-7.48 4-12.03 4.2v-2.15h-2.14v2.14c-4.55-.2-8.35-1.52-12.03-4.18l-1.3 1.72c4.1 2.96 8.3 4.4 13.33 4.6v2.14h2.14v-2.13c5.04-.2 9.24-1.65 13.33-4.6zM340.1 694.4l1.73-1.26c-2.68-3.68-4-7.5-4.2-12.07h2.15v-2.13h-2.14c.2-4.54 1.54-8.33 4.2-12l-1.73-1.28c-2.93 4.06-4.38 8.28-4.6 13.28h-2.12v2.13h2.13c.2 5.03 1.66 9.25 4.6 13.33zM365.23 665.86c-1.54-1.26-3.25-1.87-5.23-1.84-4.12 0-7.47 2.9-7.47 6.5v5.22h-2.13c-.6 0-1.07.5-1.07 1.07v14.96c0 .28.1.54.32.74.2.2.45.32.75.32h19.2c.6 0 1.07-.5 1.07-1.06V676.8c0-.28-.1-.5-.3-.7-.22-.24-.47-.36-.77-.36h-2.13v-5.2c-.02-1.88-.8-3.5-2.24-4.68zm-10.56 4.67c0-2.42 2.4-4.38 5.33-4.38 1.45-.03 2.7.4 3.84 1.33.96.77 1.47 1.8 1.5 3.05v5.2H354.7zm13.86 10.57h-3.2v2.13h3.2v2.13h-3.2v2.13h3.2v3.2h-17.06v-12.83h17.06z" stroke="#fff" stroke-opacity="0" stroke-width="2" fill="#fff"/><path d="M358.93 685.6v2.95h2.14v-2.94c.9-.32 1.54-.95 1.87-1.86.6-1.63-.25-3.42-1.87-4-1.63-.6-3.42.25-4 1.87-.6 1.63.24 3.42 1.86 4zm1.07-4.06c.64 0 1.16.5 1.16 1.14 0 .63-.5 1.15-1.14 1.16-.63 0-1.16-.5-1.16-1.14v-.04c0-.62.5-1.12 1.14-1.12z" stroke="#fff" stroke-opacity="0" stroke-width="2" fill="#fff"/><g><use xlink:href="#o" transform="matrix(1,0,0,1,290,729) translate(4.4135802469135825 17.77777777777778)"/><use xlink:href="#t" transform="matrix(1,0,0,1,290,729) translate(60.3395061728395 17.77777777777778)"/><use xlink:href="#u" transform="matrix(1,0,0,1,290,729) translate(26.234567901234563 44.44444444444444)"/></g><defs><path fill="#147eba" d="M100-194c63 0 86 42 84 106H49c0 40 14 67 53 68 26 1 43-12 49-29l28 8c-11 28-37 45-77 45C44 4 14-33 15-96c1-61 26-98 85-98zm52 81c6-60-76-77-97-28-3 7-6 17-6 28h103" id="v"/><path fill="#147eba" d="M84 4C-5 8 30-112 23-190h32v120c0 31 7 50 39 49 72-2 45-101 50-169h31l1 190h-30c-1-10 1-25-2-33-11 22-28 36-60 37" id="w"/><path fill="#147eba" d="M16-82v-28h88v28H16" id="x"/><path fill="#147eba" d="M206 0h-36l-40-164L89 0H53L-1-190h32L70-26l43-164h34l41 164 42-164h31" id="y"/><path fill="#147eba" d="M135-143c-3-34-86-38-87 0 15 53 115 12 119 90S17 21 10-45l28-5c4 36 97 45 98 0-10-56-113-15-118-90-4-57 82-63 122-42 12 7 21 19 24 35" id="z"/><path fill="#147eba" d="M59-47c-2 24 18 29 38 22v24C64 9 27 4 27-40v-127H5v-23h24l9-43h21v43h35v23H59v120" id="A"/><path fill="#147eba" d="M27 0v-27h64v-190l-56 39v-29l58-41h29v221h61V0H27" id="B"/><g id="a"><use transform="matrix(0.05,0,0,0.05,0,0)" xlink:href="#v"/><use transform="matrix(0.05,0,0,0.05,10,0)" xlink:href="#w"/><use transform="matrix(0.05,0,0,0.05,20,0)" xlink:href="#x"/><use transform="matrix(0.05,0,0,0.05,25.950000000000003,0)" xlink:href="#y"/><use transform="matrix(0.05,0,0,0.05,38.9,0)" xlink:href="#v"/><use transform="matrix(0.05,0,0,0.05,48.9,0)" xlink:href="#z"/><use transform="matrix(0.05,0,0,0.05,57.900000000000006,0)" xlink:href="#A"/><use transform="matrix(0.05,0,0,0.05,62.900000000000006,0)" xlink:href="#x"/><use transform="matrix(0.05,0,0,0.05,68.85,0)" xlink:href="#B"/></g><path fill="#147eba" d="M205 0l-28-72H64L36 0H1l101-248h38L239 0h-34zm-38-99l-47-123c-12 45-31 82-46 123h93" id="C"/><path fill="#147eba" d="M108 0H70L1-190h34L89-25l56-165h34" id="D"/><path fill="#147eba" d="M141-36C126-15 110 5 73 4 37 3 15-17 15-53c-1-64 63-63 125-63 3-35-9-54-41-54-24 1-41 7-42 31l-33-3c5-37 33-52 76-52 45 0 72 20 72 64v82c-1 20 7 32 28 27v20c-31 9-61-2-59-35zM48-53c0 20 12 33 32 33 41-3 63-29 60-74-43 2-92-5-92 41" id="E"/><path fill="#147eba" d="M24-231v-30h32v30H24zM24 0v-190h32V0H24" id="F"/><path fill="#147eba" d="M24 0v-261h32V0H24" id="G"/><path fill="#147eba" d="M115-194c53 0 69 39 70 98 0 66-23 100-70 100C84 3 66-7 56-30L54 0H23l1-261h32v101c10-23 28-34 59-34zm-8 174c40 0 45-34 45-75 0-40-5-75-45-74-42 0-51 32-51 76 0 43 10 73 51 73" id="H"/><path fill="#147eba" d="M179-190L93 31C79 59 56 82 12 73V49c39 6 53-20 64-50L1-190h34L92-34l54-156h33" id="I"/><g id="b"><use transform="matrix(0.05,0,0,0.05,0,0)" xlink:href="#C"/><use transform="matrix(0.05,0,0,0.05,11.65,0)" xlink:href="#D"/><use transform="matrix(0.05,0,0,0.05,20.65,0)" xlink:href="#E"/><use transform="matrix(0.05,0,0,0.05,30.649999999999995,0)" xlink:href="#F"/><use transform="matrix(0.05,0,0,0.05,34.6,0)" xlink:href="#G"/><use transform="matrix(0.05,0,0,0.05,38.550000000000004,0)" xlink:href="#E"/><use transform="matrix(0.05,0,0,0.05,48.550000000000004,0)" xlink:href="#H"/><use transform="matrix(0.05,0,0,0.05,58.550000000000004,0)" xlink:href="#F"/><use transform="matrix(0.05,0,0,0.05,62.5,0)" xlink:href="#G"/><use transform="matrix(0.05,0,0,0.05,66.45,0)" xlink:href="#F"/><use transform="matrix(0.05,0,0,0.05,70.4,0)" xlink:href="#A"/><use transform="matrix(0.05,0,0,0.05,75.4,0)" xlink:href="#I"/></g><path fill="#147eba" d="M209 0H11v-25l151-195H24v-28h176v25L50-27h159V0" id="J"/><path fill="#147eba" d="M100-194c62-1 85 37 85 99 1 63-27 99-86 99S16-35 15-95c0-66 28-99 85-99zM99-20c44 1 53-31 53-75 0-43-8-75-51-75s-53 32-53 75 10 74 51 75" id="K"/><path fill="#147eba" d="M117-194c89-4 53 116 60 194h-32v-121c0-31-8-49-39-48C34-167 62-67 57 0H25l-1-190h30c1 10-1 24 2 32 11-22 29-35 61-36" id="L"/><g id="c"><use transform="matrix(0.05,0,0,0.05,0,0)" xlink:href="#J"/><use transform="matrix(0.05,0,0,0.05,10.950000000000001,0)" xlink:href="#K"/><use transform="matrix(0.05,0,0,0.05,20.950000000000003,0)" xlink:href="#L"/><use transform="matrix(0.05,0,0,0.05,30.950000000000003,0)" xlink:href="#v"/></g><use transform="matrix(0.05,0,0,0.05,0,0)" xlink:href="#C" id="d"/><path fill="#147eba" d="M160-131c35 5 61 23 61 61C221 17 115-2 30 0v-248c76 3 177-17 177 60 0 33-19 50-47 57zm-97-11c50-1 110 9 110-42 0-47-63-36-110-37v79zm0 115c55-2 124 14 124-45 0-56-70-42-124-44v89" id="M"/><use transform="matrix(0.05,0,0,0.05,0,0)" xlink:href="#M" id="e"/><path fill="#248814" d="M30-248c87 1 191-15 191 75 0 78-77 80-158 76V0H30v-248zm33 125c57 0 124 11 124-50 0-59-68-47-124-48v98" id="N"/><path fill="#248814" d="M84 4C-5 8 30-112 23-190h32v120c0 31 7 50 39 49 72-2 45-101 50-169h31l1 190h-30c-1-10 1-25-2-33-11 22-28 36-60 37" id="O"/><path fill="#248814" d="M115-194c53 0 69 39 70 98 0 66-23 100-70 100C84 3 66-7 56-30L54 0H23l1-261h32v101c10-23 28-34 59-34zm-8 174c40 0 45-34 45-75 0-40-5-75-45-74-42 0-51 32-51 76 0 43 10 73 51 73" id="P"/><path fill="#248814" d="M24 0v-261h32V0H24" id="Q"/><path fill="#248814" d="M24-231v-30h32v30H24zM24 0v-190h32V0H24" id="R"/><path fill="#248814" d="M96-169c-40 0-48 33-48 73s9 75 48 75c24 0 41-14 43-38l32 2c-6 37-31 61-74 61-59 0-76-41-82-99-10-93 101-131 147-64 4 7 5 14 7 22l-32 3c-4-21-16-35-41-35" id="S"/><g id="f"><use transform="matrix(0.05,0,0,0.05,0,0)" xlink:href="#N"/><use transform="matrix(0.05,0,0,0.05,12,0)" xlink:href="#O"/><use transform="matrix(0.05,0,0,0.05,22,0)" xlink:href="#P"/><use transform="matrix(0.05,0,0,0.05,32,0)" xlink:href="#Q"/><use transform="matrix(0.05,0,0,0.05,35.95,0)" xlink:href="#R"/><use transform="matrix(0.05,0,0,0.05,39.900000000000006,0)" xlink:href="#S"/></g><path fill="#248814" d="M185-189c-5-48-123-54-124 2 14 75 158 14 163 119 3 78-121 87-175 55-17-10-28-26-33-46l33-7c5 56 141 63 141-1 0-78-155-14-162-118-5-82 145-84 179-34 5 7 8 16 11 25" id="T"/><path fill="#248814" d="M117-194c89-4 53 116 60 194h-32v-121c0-31-8-49-39-48C34-167 62-67 57 0H25l-1-190h30c1 10-1 24 2 32 11-22 29-35 61-36" id="U"/><path fill="#248814" d="M100-194c63 0 86 42 84 106H49c0 40 14 67 53 68 26 1 43-12 49-29l28 8c-11 28-37 45-77 45C44 4 14-33 15-96c1-61 26-98 85-98zm52 81c6-60-76-77-97-28-3 7-6 17-6 28h103" id="V"/><path fill="#248814" d="M59-47c-2 24 18 29 38 22v24C64 9 27 4 27-40v-127H5v-23h24l9-43h21v43h35v23H59v120" id="W"/><g id="g"><use transform="matrix(0.05,0,0,0.05,0,0)" xlink:href="#T"/><use transform="matrix(0.05,0,0,0.05,12,0)" xlink:href="#O"/><use transform="matrix(0.05,0,0,0.05,22,0)" xlink:href="#P"/><use transform="matrix(0.05,0,0,0.05,32,0)" xlink:href="#U"/><use transform="matrix(0.05,0,0,0.05,42,0)" xlink:href="#V"/><use transform="matrix(0.05,0,0,0.05,52,0)" xlink:href="#W"/></g><path fill="#147eba" d="M30-248c87 1 191-15 191 75 0 78-77 80-158 76V0H30v-248zm33 125c57 0 124 11 124-50 0-59-68-47-124-48v98" id="X"/><path fill="#147eba" d="M114-163C36-179 61-72 57 0H25l-1-190h30c1 12-1 29 2 39 6-27 23-49 58-41v29" id="Y"/><g id="h"><use transform="matrix(0.05,0,0,0.05,0,0)" xlink:href="#X"/><use transform="matrix(0.05,0,0,0.05,12,0)" xlink:href="#Y"/><use transform="matrix(0.05,0,0,0.05,17.95,0)" xlink:href="#F"/><use transform="matrix(0.05,0,0,0.05,21.9,0)" xlink:href="#D"/><use transform="matrix(0.05,0,0,0.05,30.899999999999995,0)" xlink:href="#E"/><use transform="matrix(0.05,0,0,0.05,40.9,0)" xlink:href="#A"/><use transform="matrix(0.05,0,0,0.05,45.9,0)" xlink:href="#v"/></g><path fill="#147eba" d="M185-189c-5-48-123-54-124 2 14 75 158 14 163 119 3 78-121 87-175 55-17-10-28-26-33-46l33-7c5 56 141 63 141-1 0-78-155-14-162-118-5-82 145-84 179-34 5 7 8 16 11 25" id="Z"/><g id="i"><use transform="matrix(0.05,0,0,0.05,0,0)" xlink:href="#Z"/><use transform="matrix(0.05,0,0,0.05,12,0)" xlink:href="#w"/><use transform="matrix(0.05,0,0,0.05,22,0)" xlink:href="#H"/><use transform="matrix(0.05,0,0,0.05,32,0)" xlink:href="#L"/><use transform="matrix(0.05,0,0,0.05,42,0)" xlink:href="#v"/><use transform="matrix(0.05,0,0,0.05,52,0)" xlink:href="#A"/></g><path fill="#333" d="M33 0v-248h34V0H33" id="aa"/><path fill="#333" d="M135-143c-3-34-86-38-87 0 15 53 115 12 119 90S17 21 10-45l28-5c4 36 97 45 98 0-10-56-113-15-118-90-4-57 82-63 122-42 12 7 21 19 24 35" id="ab"/><path fill="#333" d="M100-194c62-1 85 37 85 99 1 63-27 99-86 99S16-35 15-95c0-66 28-99 85-99zM99-20c44 1 53-31 53-75 0-43-8-75-51-75s-53 32-53 75 10 74 51 75" id="ac"/><path fill="#333" d="M24 0v-261h32V0H24" id="ad"/><path fill="#333" d="M141-36C126-15 110 5 73 4 37 3 15-17 15-53c-1-64 63-63 125-63 3-35-9-54-41-54-24 1-41 7-42 31l-33-3c5-37 33-52 76-52 45 0 72 20 72 64v82c-1 20 7 32 28 27v20c-31 9-61-2-59-35zM48-53c0 20 12 33 32 33 41-3 63-29 60-74-43 2-92-5-92 41" id="ae"/><path fill="#333" d="M59-47c-2 24 18 29 38 22v24C64 9 27 4 27-40v-127H5v-23h24l9-43h21v43h35v23H59v120" id="af"/><path fill="#333" d="M100-194c63 0 86 42 84 106H49c0 40 14 67 53 68 26 1 43-12 49-29l28 8c-11 28-37 45-77 45C44 4 14-33 15-96c1-61 26-98 85-98zm52 81c6-60-76-77-97-28-3 7-6 17-6 28h103" id="ag"/><path fill="#333" d="M85-194c31 0 48 13 60 33l-1-100h32l1 261h-30c-2-10 0-23-3-31C134-8 116 4 85 4 32 4 16-35 15-94c0-66 23-100 70-100zm9 24c-40 0-46 34-46 75 0 40 6 74 45 74 42 0 51-32 51-76 0-42-9-74-50-73" id="ah"/><g id="j"><use transform="matrix(0.05,0,0,0.05,0,0)" xlink:href="#aa"/><use transform="matrix(0.05,0,0,0.05,5,0)" xlink:href="#ab"/><use transform="matrix(0.05,0,0,0.05,14,0)" xlink:href="#ac"/><use transform="matrix(0.05,0,0,0.05,24,0)" xlink:href="#ad"/><use transform="matrix(0.05,0,0,0.05,27.950000000000003,0)" xlink:href="#ae"/><use transform="matrix(0.05,0,0,0.05,37.95,0)" xlink:href="#af"/><use transform="matrix(0.05,0,0,0.05,42.95,0)" xlink:href="#ag"/><use transform="matrix(0.05,0,0,0.05,52.95,0)" xlink:href="#ah"/></g><path fill="#333" d="M185-189c-5-48-123-54-124 2 14 75 158 14 163 119 3 78-121 87-175 55-17-10-28-26-33-46l33-7c5 56 141 63 141-1 0-78-155-14-162-118-5-82 145-84 179-34 5 7 8 16 11 25" id="ai"/><path fill="#333" d="M84 4C-5 8 30-112 23-190h32v120c0 31 7 50 39 49 72-2 45-101 50-169h31l1 190h-30c-1-10 1-25-2-33-11 22-28 36-60 37" id="aj"/><path fill="#333" d="M115-194c53 0 69 39 70 98 0 66-23 100-70 100C84 3 66-7 56-30L54 0H23l1-261h32v101c10-23 28-34 59-34zm-8 174c40 0 45-34 45-75 0-40-5-75-45-74-42 0-51 32-51 76 0 43 10 73 51 73" id="ak"/><path fill="#333" d="M117-194c89-4 53 116 60 194h-32v-121c0-31-8-49-39-48C34-167 62-67 57 0H25l-1-190h30c1 10-1 24 2 32 11-22 29-35 61-36" id="al"/><g id="k"><use transform="matrix(0.05,0,0,0.05,0,0)" xlink:href="#ai"/><use transform="matrix(0.05,0,0,0.05,12,0)" xlink:href="#aj"/><use transform="matrix(0.05,0,0,0.05,22,0)" xlink:href="#ak"/><use transform="matrix(0.05,0,0,0.05,32,0)" xlink:href="#al"/><use transform="matrix(0.05,0,0,0.05,42,0)" xlink:href="#ag"/><use transform="matrix(0.05,0,0,0.05,52,0)" xlink:href="#af"/></g><path fill="#333" d="M190 0L58-211 59 0H30v-248h39L202-35l-2-213h31V0h-41" id="am"/><path fill="#333" d="M205 0l-28-72H64L36 0H1l101-248h38L239 0h-34zm-38-99l-47-123c-12 45-31 82-46 123h93" id="an"/><path fill="#333" d="M127-220V0H93v-220H8v-28h204v28h-85" id="ao"/><g id="l"><use transform="matrix(0.06172839506172839,0,0,0.06172839506172839,0,0)" xlink:href="#am"/><use transform="matrix(0.06172839506172839,0,0,0.06172839506172839,15.987654320987653,0)" xlink:href="#an"/><use transform="matrix(0.06172839506172839,0,0,0.06172839506172839,29.1358024691358,0)" xlink:href="#ao"/></g><path fill="#333" d="M143 4C61 4 22-44 18-125c-5-107 100-154 193-111 17 8 29 25 37 43l-32 9c-13-25-37-40-76-40-61 0-88 39-88 99 0 61 29 100 91 101 35 0 62-11 79-27v-45h-74v-28h105v86C228-13 192 4 143 4" id="ap"/><path fill="#333" d="M266 0h-40l-56-210L115 0H75L2-248h35L96-30l15-64 43-154h32l59 218 59-218h35" id="aq"/><g id="m"><use transform="matrix(0.06172839506172839,0,0,0.06172839506172839,0,0)" xlink:href="#ap"/><use transform="matrix(0.06172839506172839,0,0,0.06172839506172839,17.28395061728395,0)" xlink:href="#aq"/></g><path fill="#333" d="M30 0v-248h33v221h125V0H30" id="ar"/><path fill="#333" d="M160-131c35 5 61 23 61 61C221 17 115-2 30 0v-248c76 3 177-17 177 60 0 33-19 50-47 57zm-97-11c50-1 110 9 110-42 0-47-63-36-110-37v79zm0 115c55-2 124 14 124-45 0-56-70-42-124-44v89" id="as"/><g id="n"><use transform="matrix(0.06172839506172839,0,0,0.06172839506172839,0,0)" xlink:href="#an"/><use transform="matrix(0.06172839506172839,0,0,0.06172839506172839,14.814814814814813,0)" xlink:href="#ar"/><use transform="matrix(0.06172839506172839,0,0,0.06172839506172839,27.160493827160494,0)" xlink:href="#as"/></g><g id="o"><use transform="matrix(0.06172839506172839,0,0,0.06172839506172839,0,0)" xlink:href="#an"/><use transform="matrix(0.06172839506172839,0,0,0.06172839506172839,14.012345679012345,0)" xlink:href="#aq"/><use transform="matrix(0.06172839506172839,0,0,0.06172839506172839,34.938271604938265,0)" xlink:href="#ai"/></g><path fill="#333" d="M63-220v92h138v28H63V0H30v-248h175v28H63" id="at"/><path fill="#333" d="M114-163C36-179 61-72 57 0H25l-1-190h30c1 12-1 29 2 39 6-27 23-49 58-41v29" id="au"/><path fill="#333" d="M177-190C167-65 218 103 67 71c-23-6-38-20-44-43l32-5c15 47 100 32 89-28v-30C133-14 115 1 83 1 29 1 15-40 15-95c0-56 16-97 71-98 29-1 48 16 59 35 1-10 0-23 2-32h30zM94-22c36 0 50-32 50-73 0-42-14-75-50-75-39 0-46 34-46 75s6 73 46 73" id="av"/><g id="p"><use transform="matrix(0.06172839506172839,0,0,0.06172839506172839,0,0)" xlink:href="#at"/><use transform="matrix(0.06172839506172839,0,0,0.06172839506172839,13.518518518518517,0)" xlink:href="#ae"/><use transform="matrix(0.06172839506172839,0,0,0.06172839506172839,25.864197530864196,0)" xlink:href="#au"/><use transform="matrix(0.06172839506172839,0,0,0.06172839506172839,33.20987654320987,0)" xlink:href="#av"/><use transform="matrix(0.06172839506172839,0,0,0.06172839506172839,45.55555555555555,0)" xlink:href="#ae"/><use transform="matrix(0.06172839506172839,0,0,0.06172839506172839,57.90123456790123,0)" xlink:href="#af"/><use transform="matrix(0.06172839506172839,0,0,0.06172839506172839,64.07407407407406,0)" xlink:href="#ag"/></g><path fill="#333" d="M30 0v-248h187v28H63v79h144v27H63v87h162V0H30" id="aw"/><path fill="#333" d="M212-179c-10-28-35-45-73-45-59 0-87 40-87 99 0 60 29 101 89 101 43 0 62-24 78-52l27 14C228-24 195 4 139 4 59 4 22-46 18-125c-6-104 99-153 187-111 19 9 31 26 39 46" id="ax"/><path fill="#333" d="M233-177c-1 41-23 64-60 70L243 0h-38l-65-103H63V0H30v-248c88 3 205-21 203 71zM63-129c60-2 137 13 137-47 0-61-80-42-137-45v92" id="ay"/><g id="q"><use transform="matrix(0.06172839506172839,0,0,0.06172839506172839,0,0)" xlink:href="#aw"/><use transform="matrix(0.06172839506172839,0,0,0.06172839506172839,14.814814814814813,0)" xlink:href="#ax"/><use transform="matrix(0.06172839506172839,0,0,0.06172839506172839,30.80246913580247,0)" xlink:href="#ay"/></g><path fill="#333" d="M30-248c118-7 216 8 213 122C240-48 200 0 122 0H30v-248zM63-27c89 8 146-16 146-99s-60-101-146-95v194" id="az"/><g id="s"><use transform="matrix(0.06172839506172839,0,0,0.06172839506172839,0,0)" xlink:href="#ay"/><use transform="matrix(0.06172839506172839,0,0,0.06172839506172839,15.987654320987653,0)" xlink:href="#az"/><use transform="matrix(0.06172839506172839,0,0,0.06172839506172839,31.975308641975307,0)" xlink:href="#ai"/></g><filter id="r" filterUnits="objectBoundingBox" x="-.09" y="-.06" width="1.18" height="1.18"><feOffset result="offOut" in="SourceAlpha" dy="2"/><feGaussianBlur result="blurOut" in="offOut" stdDeviation="3.5"/><feColorMatrix result="colorOut" in="blurOut" values="0 0 0 0 0 0 0 0 0 0 0 0 0 0 0 0 0 0 0.5019607843137255 0"/><feBlend in="SourceGraphic" in2="colorOut"/></filter><path fill="#333" d="M96-169c-40 0-48 33-48 73s9 75 48 75c24 0 41-14 43-38l32 2c-6 37-31 61-74 61-59 0-76-41-82-99-10-93 101-131 147-64 4 7 5 14 7 22l-32 3c-4-21-16-35-41-35" id="aA"/><g id="t"><use transform="matrix(0.06172839506172839,0,0,0.06172839506172839,0,0)" xlink:href="#ai"/><use transform="matrix(0.06172839506172839,0,0,0.06172839506172839,14.814814814814813,0)" xlink:href="#ag"/><use transform="matrix(0.06172839506172839,0,0,0.06172839506172839,27.160493827160494,0)" xlink:href="#aA"/><use transform="matrix(0.06172839506172839,0,0,0.06172839506172839,38.27160493827161,0)" xlink:href="#au"/><use transform="matrix(0.06172839506172839,0,0,0.06172839506172839,45.617283950617285,0)" xlink:href="#ag"/><use transform="matrix(0.06172839506172839,0,0,0.06172839506172839,57.96296296296296,0)" xlink:href="#af"/><use transform="matrix(0.06172839506172839,0,0,0.06172839506172839,64.1358024691358,0)" xlink:href="#ab"/></g><path fill="#333" d="M240 0l2-218c-23 76-54 145-80 218h-23L58-218 59 0H30v-248h44l77 211c21-75 51-140 76-211h43V0h-30" id="aB"/><g id="u"><use transform="matrix(0.06172839506172839,0,0,0.06172839506172839,0,0)" xlink:href="#aB"/><use transform="matrix(0.06172839506172839,0,0,0.06172839506172839,18.456790123456788,0)" xlink:href="#ae"/><use transform="matrix(0.06172839506172839,0,0,0.06172839506172839,30.80246913580247,0)" xlink:href="#al"/><use transform="matrix(0.06172839506172839,0,0,0.06172839506172839,43.148148148148145,0)" xlink:href="#ae"/><use transform="matrix(0.06172839506172839,0,0,0.06172839506172839,55.49382716049382,0)" xlink:href="#av"/><use transform="matrix(0.06172839506172839,0,0,0.06172839506172839,67.8395061728395,0)" xlink:href="#ag"/><use transform="matrix(0.06172839506172839,0,0,0.06172839506172839,80.18518518518519,0)" xlink:href="#au"/></g></defs></g></svg>